HIERARCHY
ROOT Hips
{
	OFFSET	0.0000	0.0000	0.0000
	CHANNELS 6 Xposition Yposition Zposition Xrotation Yrotation Zrotation
	JOINT Spine
	{
		OFFSET	0.0000	9.2806	-5.0222
		CHANNELS 3 Xrotation Yrotation Zrotation
		JOINT Spine1
		{
			OFFSET	0.0000	8.4692	0.4425
			CHANNELS 3 Xrotation Yrotation Zrotation
			JOINT Spine2
			{
				OFFSET	0.0000	10.4797	-2.3327
				CHANNELS 3 Xrotation Yrotation Zrotation
				JOINT Neck
				{
					OFFSET	-0.0001	29.9775	3.4151
					CHANNELS 3 Xrotation Yrotation Zrotation
					JOINT Head
					{
						OFFSET	-0.0001	9.6289	2.4647
						CHANNELS 3 Xrotation Yrotation Zrotation
						End Site
						{
							OFFSET	-0.0001	18.7626	-1.1835
						}
					}
				}
				JOINT LeftShoulder
				{
					OFFSET	2.3842	22.7902	7.8081
					CHANNELS 3 Xrotation Yrotation Zrotation
					JOINT LeftArm
					{
						OFFSET	13.9287	3.2690	-5.2895
						CHANNELS 3 Xrotation Yrotation Zrotation
						JOINT LeftForeArm
						{
							OFFSET	29.5874	-0.1050	-0.2563
							CHANNELS 3 Xrotation Yrotation Zrotation
							JOINT LeftHand
							{
								OFFSET	24.6822	0.0716	-0.1479
								CHANNELS 3 Xrotation Yrotation Zrotation
								JOINT LeftHandIndex1
								{
									OFFSET	9.5661	0.8366	2.6570
									CHANNELS 3 Xrotation Yrotation Zrotation
									JOINT LeftHandIndex2
									{
										OFFSET	3.5782	-0.8725	0.6305
										CHANNELS 3 Xrotation Yrotation Zrotation
										JOINT LeftHandIndex3
										{
											OFFSET	2.4428	-0.5958	0.4305
											CHANNELS 3 Xrotation Yrotation Zrotation
											End Site
											{
												OFFSET	1.7382	-0.5189	0.2820
											}
										}
									}
								}
								JOINT LeftHandMiddle1
								{
									OFFSET	9.7089	0.9661	0.2313
									CHANNELS 3 Xrotation Yrotation Zrotation
									JOINT LeftHandMiddle2
									{
										OFFSET	4.4243	0.0124	-0.0261
										CHANNELS 3 Xrotation Yrotation Zrotation
										JOINT LeftHandMiddle3
										{
											OFFSET	2.4524	0.0075	-0.0149
											CHANNELS 3 Xrotation Yrotation Zrotation
											End Site
											{
												OFFSET	2.2027	-0.1555	0.0030
											}
										}
									}
								}
								JOINT LeftHandRing1
								{
									OFFSET	9.2012	0.6448	-2.1768
									CHANNELS 3 Xrotation Yrotation Zrotation
									JOINT LeftHandRing2
									{
										OFFSET	4.0145	-0.2033	-0.2513
										CHANNELS 3 Xrotation Yrotation Zrotation
										JOINT LeftHandRing3
										{
											OFFSET	2.2877	-0.1151	-0.1437
											CHANNELS 3 Xrotation Yrotation Zrotation
											End Site
											{
												OFFSET	2.0227	-0.2487	-0.0956
											}
										}
									}
								}
								JOINT LeftHandPinky1
								{
									OFFSET	8.5383	-0.6488	-3.7594
									CHANNELS 3 Xrotation Yrotation Zrotation
									JOINT LeftHandPinky2
									{
										OFFSET	2.4693	-0.5149	-0.6816
										CHANNELS 3 Xrotation Yrotation Zrotation
										JOINT LeftHandPinky3
										{
											OFFSET	1.8108	-0.3771	-0.5002
											CHANNELS 3 Xrotation Yrotation Zrotation
											End Site
											{
												OFFSET	1.6072	-0.4416	-0.3687
											}
										}
									}
								}
								JOINT LeftHandThumb1
								{
									OFFSET	1.9789	-1.4978	1.5002
									CHANNELS 3 Xrotation Yrotation Zrotation
									JOINT LeftHandThumb2
									{
										OFFSET	3.6844	-1.2099	2.7778
										CHANNELS 3 Xrotation Yrotation Zrotation
										JOINT LeftHandThumb3
										{
											OFFSET	2.4261	-0.8682	1.7479
											CHANNELS 3 Xrotation Yrotation Zrotation
											End Site
											{
												OFFSET	1.7841	-0.6141	1.2216
											}
										}
									}
								}
							}
						}
					}
				}
				JOINT RightShoulder
				{
					OFFSET	-2.3842	22.7902	7.8081
					CHANNELS 3 Xrotation Yrotation Zrotation
					JOINT RightArm
					{
						OFFSET	-13.9312	3.2696	-5.2904
						CHANNELS 3 Xrotation Yrotation Zrotation
						JOINT RightForeArm
						{
							OFFSET	-29.5874	-0.1050	-0.2563
							CHANNELS 3 Xrotation Yrotation Zrotation
							JOINT RightHand
							{
								OFFSET	-24.6822	0.0716	-0.1478
								CHANNELS 3 Xrotation Yrotation Zrotation
								JOINT RightHandIndex1
								{
									OFFSET	-9.5662	0.8367	2.6570
									CHANNELS 3 Xrotation Yrotation Zrotation
									JOINT RightHandIndex2
									{
										OFFSET	-3.5782	-0.8725	0.6305
										CHANNELS 3 Xrotation Yrotation Zrotation
										JOINT RightHandIndex3
										{
											OFFSET	-2.4427	-0.5959	0.4306
											CHANNELS 3 Xrotation Yrotation Zrotation
											End Site
											{
												OFFSET	-1.7383	-0.5189	0.2820
											}
										}
									}
								}
								JOINT RightHandMiddle1
								{
									OFFSET	-9.7089	0.9662	0.2314
									CHANNELS 3 Xrotation Yrotation Zrotation
									JOINT RightHandMiddle2
									{
										OFFSET	-4.4243	0.0124	-0.0261
										CHANNELS 3 Xrotation Yrotation Zrotation
										JOINT RightHandMiddle3
										{
											OFFSET	-2.4524	0.0075	-0.0150
											CHANNELS 3 Xrotation Yrotation Zrotation
											End Site
											{
												OFFSET	-2.2027	-0.1555	0.0030
											}
										}
									}
								}
								JOINT RightHandRing1
								{
									OFFSET	-9.2012	0.6448	-2.1769
									CHANNELS 3 Xrotation Yrotation Zrotation
									JOINT RightHandRing2
									{
										OFFSET	-4.0145	-0.2032	-0.2513
										CHANNELS 3 Xrotation Yrotation Zrotation
										JOINT RightHandRing3
										{
											OFFSET	-2.2877	-0.1151	-0.1437
											CHANNELS 3 Xrotation Yrotation Zrotation
											End Site
											{
												OFFSET	-2.0227	-0.2487	-0.0956
											}
										}
									}
								}
								JOINT RightHandPinky1
								{
									OFFSET	-8.5383	-0.6488	-3.7594
									CHANNELS 3 Xrotation Yrotation Zrotation
									JOINT RightHandPinky2
									{
										OFFSET	-2.4693	-0.5149	-0.6816
										CHANNELS 3 Xrotation Yrotation Zrotation
										JOINT RightHandPinky3
										{
											OFFSET	-1.8107	-0.3770	-0.5002
											CHANNELS 3 Xrotation Yrotation Zrotation
											End Site
											{
												OFFSET	-1.6072	-0.4416	-0.3687
											}
										}
									}
								}
								JOINT RightHandThumb1
								{
									OFFSET	-1.9789	-1.4977	1.5001
									CHANNELS 3 Xrotation Yrotation Zrotation
									JOINT RightHandThumb2
									{
										OFFSET	-3.6843	-1.2101	2.7779
										CHANNELS 3 Xrotation Yrotation Zrotation
										JOINT RightHandThumb3
										{
											OFFSET	-2.4261	-0.8680	1.7479
											CHANNELS 3 Xrotation Yrotation Zrotation
											End Site
											{
												OFFSET	-1.7841	-0.6141	1.2216
											}
										}
									}
								}
							}
						}
					}
				}
			}
		}
	}
	JOINT RightUpLeg
	{
		OFFSET	-9.9279	4.1951	-0.8183
		CHANNELS 3 Xrotation Yrotation Zrotation
		JOINT RightLeg
		{
			OFFSET	-0.7944	-43.1819	0.0000
			CHANNELS 3 Xrotation Yrotation Zrotation
			JOINT RightFoot
			{
				OFFSET	0.0000	-42.4020	0.0000
				CHANNELS 3 Xrotation Yrotation Zrotation
				JOINT RightToeBase
				{
					OFFSET	0.0000	-4.6604	9.7454
					CHANNELS 3 Xrotation Yrotation Zrotation
					End Site
					{
						OFFSET	0.0000	0.0000	6.5378
					}
				}
			}
		}
	}
	JOINT LeftUpLeg
	{
		OFFSET	9.9278	4.1954	-0.8184
		CHANNELS 3 Xrotation Yrotation Zrotation
		JOINT LeftLeg
		{
			OFFSET	0.7945	-43.1822	0.0000
			CHANNELS 3 Xrotation Yrotation Zrotation
			JOINT LeftFoot
			{
				OFFSET	0.0000	-42.4020	0.0000
				CHANNELS 3 Xrotation Yrotation Zrotation
				JOINT LeftToeBase
				{
					OFFSET	0.0000	-4.6604	9.7454
					CHANNELS 3 Xrotation Yrotation Zrotation
					End Site
					{
						OFFSET	0.0000	0.0000	6.5378
					}
				}
			}
		}
	}
}
MOTION
Frames:	8
Frame Time: 0.0333333000
	-3.4626	88.3456	-68.2315	11.635810	-5.971556	-0.107611	0.000000	0.000000	0.000000	-2.147431	0.592055	2.237063	-2.147431	0.592055	2.237063	0.000000	0.000000	0.000000	0.000000	0.000000	0.000000	0.000001	0.000000	-13.759350	40.711880	-58.404700	-28.926140	0.000005	-29.602530	0.000004	-0.000004	-0.000004	0.000004	0.000004	0.000004	-0.000004	-0.000002	-0.000002	0.000002	0.000002	0.000002	-0.000002	0.000004	0.000004	-0.000004	-0.000002	-0.000002	0.000002	0.000002	0.000002	-0.000002	0.000004	0.000004	-0.000004	-0.000002	-0.000002	0.000002	0.000002	0.000002	-0.000002	0.000004	0.000004	-0.000004	-0.000002	-0.000002	0.000002	0.000002	0.000002	-0.000002	0.000004	0.000004	-0.000004	-0.000002	-0.000002	0.000002	0.000002	0.000002	-0.000002	0.000000	0.000000	8.390987	19.642500	-0.557991	56.227760	0.000000	20.592510	0.000001	-0.000001	-0.000001	0.000002	0.000000	0.000000	0.000002	0.000000	0.000000	0.000002	0.000000	0.000000	0.000002	0.000000	0.000000	0.000002	0.000000	0.000000	0.000002	0.000000	0.000000	0.000002	0.000000	0.000000	0.000002	0.000000	0.000000	0.000002	0.000000	0.000000	0.000002	0.000000	0.000000	0.000002	0.000000	0.000000	0.000002	0.000000	0.000000	0.000002	0.000000	0.000000	0.000002	0.000000	0.000000	0.000002	0.000000	0.000000	0.000002	-15.108930	-9.306215	-0.311475	5.914201	-0.000001	0.000000	-2.901564	-4.316951	-2.200236	0.000000	0.000001	0.000000	-8.702123	-2.953733	-0.976257	19.251120	0.000001	0.000000	-4.588164	6.295090	3.338332	-5.018751	0.000000	0.000000
	-4.6508	88.4346	-67.1395	11.089140	-7.484348	0.092466	0.000000	0.000000	0.000000	-2.102315	0.851796	2.142667	-2.102314	0.851796	2.142666	0.000000	0.000001	0.000000	0.000000	0.000000	0.000000	0.000000	0.000000	-13.712480	40.465700	-59.286790	-28.203290	0.000001	-27.743540	-0.000001	-0.000001	0.000000	0.000000	-0.000001	0.000000	0.000000	-0.000001	0.000000	0.000000	-0.000001	0.000000	0.000000	-0.000001	0.000000	0.000000	-0.000001	0.000000	0.000000	-0.000001	0.000000	0.000000	-0.000001	0.000000	0.000000	-0.000001	0.000000	0.000000	-0.000001	0.000000	0.000000	-0.000001	0.000000	0.000000	-0.000001	0.000000	0.000000	-0.000001	0.000000	0.000000	-0.000001	0.000000	0.000000	-0.000001	0.000000	0.000000	-0.000001	0.000000	0.000000	-0.000001	0.000001	8.456106	19.725930	-0.821137	55.922860	0.000000	21.148010	-0.000006	0.000000	-0.000001	0.000004	0.000000	0.000000	0.000000	0.000000	0.000000	0.000000	0.000000	0.000000	0.000000	0.000000	0.000000	0.000000	0.000000	0.000000	0.000000	0.000000	0.000000	0.000000	0.000000	0.000000	0.000000	0.000000	0.000000	0.000000	0.000000	0.000000	0.000000	0.000000	0.000000	0.000000	0.000000	0.000000	0.000000	0.000000	0.000000	0.000000	0.000000	0.000000	0.000000	0.000000	0.000000	0.000000	0.000000	0.000000	0.000000	-13.848130	-9.305948	0.516817	5.942379	0.000000	0.000000	-3.227361	-3.940241	-2.017216	0.000000	0.000000	0.000000	-10.715670	-4.411280	-0.123295	24.531430	0.000001	0.000000	-0.999180	4.501124	2.185468	-9.140626	-0.000001	0.000001
	-5.9351	88.4235	-66.1351	10.695030	-9.232199	0.158284	0.000000	0.000000	0.000000	-2.046234	1.113934	2.012090	-2.046234	1.113933	2.012090	0.000000	-0.000001	0.000000	0.000000	0.000000	0.000000	0.000000	-0.000001	-13.590080	40.139750	-59.889270	-27.624310	-0.000003	-25.659680	-0.000004	-0.000001	0.000000	0.000000	-0.000001	0.000000	0.000000	-0.000001	0.000000	0.000000	-0.000001	0.000000	0.000000	-0.000001	0.000000	0.000000	-0.000001	0.000000	0.000000	-0.000001	0.000000	0.000000	-0.000001	0.000000	0.000000	-0.000001	0.000000	0.000000	-0.000001	0.000000	0.000000	-0.000001	0.000000	0.000000	-0.000001	0.000000	0.000000	-0.000001	0.000000	0.000000	-0.000001	0.000000	0.000000	-0.000001	0.000000	0.000000	-0.000001	0.000000	0.000000	0.000001	-0.000001	8.570459	19.749060	-1.145480	55.501720	-0.000001	22.476010	-0.000005	0.000000	0.000001	0.000002	0.000000	0.000000	0.000002	0.000000	0.000000	0.000002	0.000000	0.000000	0.000002	0.000000	0.000000	0.000002	0.000000	0.000000	0.000002	0.000000	0.000000	0.000002	0.000000	0.000000	0.000002	0.000000	0.000000	0.000002	0.000000	0.000000	0.000002	0.000000	0.000000	0.000002	0.000000	0.000000	0.000002	0.000000	0.000000	0.000002	0.000000	0.000000	0.000002	0.000000	0.000000	0.000002	0.000000	0.000000	0.000002	-12.456810	-9.347764	1.578593	5.413351	0.000000	0.000000	-3.705532	-2.894904	-1.498391	0.000000	-0.000001	0.000000	-13.185300	-6.002583	0.895054	30.391270	0.000003	0.000000	0.879708	3.607771	1.700741	-10.491410	0.000000	0.000001
	-7.2737	88.3342	-65.0610	10.224500	-10.882940	0.142738	0.000000	0.000000	0.000000	-1.982327	1.357868	1.866177	-1.982329	1.357867	1.866177	0.000001	0.000000	0.000000	0.000000	0.000000	0.000000	0.000001	0.000000	-13.330980	39.684210	-59.885330	-27.443230	0.000003	-24.917010	-0.000001	-0.000001	0.000000	0.000000	-0.000001	0.000000	0.000000	-0.000001	0.000000	0.000000	-0.000001	0.000000	0.000000	-0.000001	0.000000	0.000000	-0.000001	0.000000	0.000000	-0.000001	0.000000	0.000000	-0.000001	0.000000	0.000000	-0.000001	0.000000	0.000000	-0.000001	0.000000	0.000000	-0.000001	0.000000	0.000000	-0.000001	0.000000	0.000000	-0.000001	0.000000	0.000000	-0.000001	0.000000	0.000000	-0.000001	0.000000	0.000000	-0.000001	0.000000	0.000000	0.000001	-0.000001	8.685991	19.890600	-1.991516	55.032510	-0.000002	25.033780	0.000011	0.000000	0.000001	-0.000002	0.000000	0.000000	-0.000002	0.000000	0.000000	-0.000002	0.000000	0.000000	-0.000002	0.000000	0.000000	-0.000002	0.000000	0.000000	-0.000002	0.000000	0.000000	-0.000002	0.000000	0.000000	-0.000002	0.000000	0.000000	-0.000002	0.000000	0.000000	-0.000002	0.000000	0.000000	-0.000002	0.000000	0.000000	-0.000002	0.000000	0.000000	-0.000002	0.000000	0.000000	-0.000002	0.000000	0.000000	-0.000002	0.000000	0.000000	-0.000002	-10.385930	-9.398965	2.728142	3.884387	-0.000001	0.000000	-3.921982	-1.847526	-0.964941	0.000000	0.000000	0.000000	-15.296390	-7.628752	1.784110	35.251690	0.000003	0.000000	1.602673	3.007945	1.367387	-9.809370	-0.000004	0.000001
	-8.5686	88.2824	-63.9066	9.659130	-12.233800	0.165869	-0.000001	0.000002	0.000000	-1.918587	1.561698	1.716032	-1.918588	1.561697	1.716032	0.000000	0.000000	0.000000	0.000000	0.000000	0.000000	0.000000	-0.000001	-12.920840	39.031890	-59.695030	-27.737410	-0.000001	-24.929400	0.000009	0.000002	0.000001	0.000002	0.000000	0.000001	-0.000004	-0.000006	-0.000003	-0.000006	0.000001	0.000001	0.000002	0.000000	0.000001	-0.000004	-0.000006	-0.000003	-0.000006	0.000001	0.000001	0.000002	0.000000	0.000001	-0.000004	-0.000006	-0.000003	-0.000006	0.000001	0.000001	0.000002	0.000000	0.000001	-0.000004	-0.000006	-0.000003	-0.000006	0.000001	0.000001	0.000002	0.000000	0.000001	-0.000004	-0.000006	-0.000003	-0.000006	0.000001	0.000001	0.000002	0.000000	-0.000002	8.784068	20.058100	-2.753422	54.874370	0.000001	28.503650	0.000002	0.000000	0.000001	0.000002	0.000000	0.000000	0.000002	0.000000	0.000000	0.000002	0.000000	0.000000	0.000002	0.000000	0.000000	0.000002	0.000000	0.000000	0.000002	0.000000	0.000000	0.000002	0.000000	0.000000	0.000002	0.000000	0.000000	0.000002	0.000000	0.000000	0.000002	0.000000	0.000000	0.000002	0.000000	0.000000	0.000002	0.000000	0.000000	0.000002	0.000000	0.000000	0.000002	0.000000	0.000000	0.000002	0.000000	0.000000	0.000002	-7.924521	-9.440570	3.753063	1.904864	0.000002	-0.000001	-3.489949	-1.847062	-0.957167	0.000000	-0.000002	0.000000	-17.238150	-9.158437	2.345070	39.123290	0.000003	-0.000001	1.886579	1.424076	0.634065	-7.279690	0.000002	-0.000002
	-9.6670	88.2904	-62.8572	9.300112	-13.498650	0.407206	0.000000	0.000000	0.000000	-1.860571	1.704349	1.560757	-1.860569	1.704348	1.560757	0.000000	0.000000	0.000000	0.000000	0.000000	0.000000	-0.000001	0.000001	-12.395720	38.091150	-59.728310	-28.743330	0.000001	-24.178370	0.000007	0.000000	0.000000	0.000000	0.000000	0.000000	0.000000	0.000000	0.000000	0.000000	0.000000	0.000000	0.000000	0.000000	0.000000	0.000000	0.000000	0.000000	0.000000	0.000000	0.000000	0.000000	0.000000	0.000000	0.000000	0.000000	0.000000	0.000000	0.000000	0.000000	0.000000	0.000000	0.000000	0.000000	0.000000	0.000000	0.000000	0.000000	0.000000	0.000000	0.000000	0.000000	0.000000	0.000000	0.000000	0.000000	0.000000	0.000000	0.000000	-0.000001	0.000000	8.857355	19.774190	-2.475200	54.765540	0.000000	32.559060	-0.000007	0.000000	0.000000	-0.000004	0.000000	0.000000	-0.000004	0.000000	0.000000	-0.000004	0.000000	0.000000	-0.000004	0.000000	0.000000	-0.000004	0.000000	0.000000	-0.000004	0.000000	0.000000	-0.000004	0.000000	0.000000	-0.000004	0.000000	0.000000	-0.000004	0.000000	0.000000	-0.000004	0.000000	0.000000	-0.000004	0.000000	0.000000	-0.000004	0.000000	0.000000	-0.000004	0.000000	0.000000	-0.000004	0.000000	0.000000	-0.000004	0.000000	0.000000	-0.000004	-6.072798	-9.477407	4.380617	0.521978	-0.000003	0.000000	-3.001354	-1.968550	-1.007143	0.000000	0.000000	0.000000	-19.786710	-10.811300	2.102119	42.651180	0.000004	0.000000	1.748646	0.055787	0.025722	-3.281247	-0.000001	0.000000
	-10.6032	88.2939	-61.9185	9.125465	-14.811030	0.837043	0.000000	0.000000	0.000000	-1.808540	1.773547	1.392827	-1.808540	1.773546	1.392827	0.000000	0.000001	0.000000	0.000000	0.000001	0.000000	0.000000	0.000002	-11.827540	36.850930	-59.853790	-30.559040	0.000002	-22.426020	0.000000	-0.000001	-0.000001	0.000004	0.000001	0.000001	0.000002	0.000001	-0.000004	-0.000003	-0.000002	0.000004	0.000003	0.000001	0.000001	0.000002	0.000001	-0.000004	-0.000003	-0.000002	0.000004	0.000003	0.000001	0.000001	0.000002	0.000001	-0.000004	-0.000003	-0.000002	0.000004	0.000003	0.000001	0.000001	0.000002	0.000001	-0.000004	-0.000003	-0.000002	0.000004	0.000003	0.000001	0.000001	0.000002	0.000001	-0.000004	-0.000003	-0.000002	0.000004	0.000003	0.000000	0.000000	8.882710	18.909950	-1.163916	54.394690	0.000000	36.613670	0.000004	0.000000	-0.000001	-0.000004	0.000000	0.000000	-0.000004	0.000000	0.000000	-0.000004	0.000000	0.000000	-0.000004	0.000000	0.000000	-0.000004	0.000000	0.000000	-0.000004	0.000000	0.000000	-0.000004	0.000000	0.000000	-0.000004	0.000000	0.000000	-0.000004	0.000000	0.000000	-0.000004	0.000000	0.000000	-0.000004	0.000000	0.000000	-0.000004	0.000000	0.000000	-0.000004	0.000000	0.000000	-0.000004	0.000000	0.000000	-0.000004	0.000000	0.000000	-0.000004	-4.813588	-9.544818	4.651704	-0.238980	0.000000	0.000000	-2.935647	-1.119113	-0.569827	0.000000	0.000002	0.000000	-22.816460	-12.634740	1.035072	44.975800	0.000007	-0.000003	1.498213	-0.489793	-0.225275	-0.616408	0.000001	0.000000
	-11.5903	88.2564	-60.9848	9.012053	-16.270160	1.291791	0.000000	-0.000001	0.000000	-1.759879	1.775754	1.208633	-1.759879	1.775753	1.208633	0.000000	0.000000	0.000000	0.000000	0.000000	0.000000	0.000000	0.000000	-11.296780	35.541550	-59.400130	-32.800110	0.000002	-20.926780	0.000002	-0.000002	-0.000002	0.000002	0.000000	0.000000	-0.000004	-0.000002	-0.000001	-0.000002	-0.000002	-0.000001	-0.000002	0.000000	0.000000	-0.000004	-0.000002	-0.000001	-0.000002	-0.000002	-0.000001	-0.000002	0.000000	0.000000	-0.000004	-0.000002	-0.000001	-0.000002	-0.000002	-0.000001	-0.000002	0.000000	0.000000	-0.000004	-0.000002	-0.000001	-0.000002	-0.000002	-0.000001	-0.000002	0.000000	0.000000	-0.000004	-0.000002	-0.000001	-0.000002	-0.000002	-0.000001	-0.000002	0.000000	0.000000	8.804144	17.490800	0.281823	54.134120	-0.000006	39.564400	0.000020	0.000001	0.000000	-0.000006	0.000000	-0.000001	-0.000002	0.000000	-0.000001	-0.000002	0.000001	0.000000	-0.000002	0.000000	-0.000001	-0.000002	0.000000	-0.000001	-0.000002	0.000001	0.000000	-0.000002	0.000000	-0.000001	-0.000002	0.000000	-0.000001	-0.000002	0.000001	0.000000	-0.000002	0.000000	-0.000001	-0.000002	0.000000	-0.000001	-0.000002	0.000001	0.000000	-0.000002	0.000000	-0.000001	-0.000002	0.000000	-0.000001	-0.000002	0.000001	0.000000	-0.000002	-3.731853	-9.661009	4.874199	-0.652021	0.000001	0.000001	-3.326881	-0.205965	-0.108984	0.000000	0.000000	0.000000	-25.579100	-13.813140	0.011161	44.855920	0.000002	0.000001	1.030551	-0.965697	-0.453525	0.000000	0.000000	0.000000
